<?xml version="1.0" standalone="no"?>
<!DOCTYPE svg PUBLIC "-//W3C//DTD SVG 20010904//EN"
 "http://www.w3.org/TR/2001/REC-SVG-20010904/DTD/svg10.dtd">
<svg version="1.0" xmlns="http://www.w3.org/2000/svg"
 width="300.000000pt" height="300.000000pt" viewBox="0 0 300.000000 300.000000"
 preserveAspectRatio="xMidYMid meet">
<metadata>
Created by potrace 1.11, written by Peter Selinger 2001-2013
</metadata>
<g transform="translate(0.000000,300.000000) scale(0.100000,-0.100000)"
fill="#000000" stroke="none">
<path d="M753 2902 c-50 -63 -161 -252 -147 -252 4 0 1 -6 -5 -13 -7 -9 -10
-51 -8 -115 2 -56 2 -102 0 -102 -2 0 -15 7 -29 16 -13 9 -26 15 -29 13 -2 -3
-8 -32 -14 -65 -9 -60 -8 -110 5 -209 4 -27 6 -52 6 -55 0 -3 4 -11 10 -17 6
-7 8 -13 4 -13 -3 0 1 -16 9 -36 l15 -37 -41 7 -42 7 6 -38 c8 -44 71 -178
122 -258 20 -32 34 -59 32 -61 -2 -2 -23 10 -47 27 -33 24 -44 28 -51 17 -5
-7 -6 -21 -3 -30 3 -10 7 -29 10 -43 16 -91 82 -208 140 -251 62 -45 62 -46
-4 -19 -34 14 -66 25 -72 25 -17 0 -10 -33 18 -85 107 -198 274 -345 480 -426
67 -26 80 -35 70 -45 -20 -19 -146 -83 -218 -111 -65 -25 -79 -29 -135 -38
-16 -3 -39 -8 -49 -12 -40 -12 -198 -10 -281 3 -47 8 -113 25 -147 39 -73 30
-78 30 -78 8 1 -45 93 -110 171 -120 46 -7 49 -15 12 -33 -76 -37 -148 -45
-178 -20 -10 8 -15 8 -20 -1 -4 -6 6 -25 24 -43 29 -29 36 -31 101 -31 39 0
70 -2 70 -6 0 -9 -64 -66 -83 -73 -24 -8 -17 -27 14 -43 29 -15 74 -17 99 -3
17 9 19 6 19 -44 0 -61 30 -130 80 -184 28 -30 158 -98 204 -108 10 -2 27 -6
38 -9 36 -12 19 13 -28 43 -69 42 -101 76 -124 128 -12 25 -19 48 -16 50 2 2
21 -21 42 -51 54 -79 98 -115 140 -115 41 0 45 11 10 30 -14 8 -37 29 -51 48
-29 37 -59 122 -44 122 6 0 10 -4 10 -9 0 -11 62 -72 68 -67 2 3 -8 24 -22 49
-42 71 -29 131 34 157 29 12 88 1 116 -22 23 -18 132 -67 175 -78 76 -21 82
-22 161 -27 46 -3 99 0 130 7 93 22 235 102 291 164 58 64 166 213 203 280 38
69 38 70 46 40 19 -74 121 -147 206 -147 34 0 49 6 72 28 17 16 33 37 36 48 8
26 -14 102 -37 123 -17 15 -17 18 -1 43 9 14 19 28 22 31 3 3 29 39 56 80 98
145 170 248 194 279 l25 31 45 -30 c39 -26 47 -28 59 -15 13 13 10 19 -25 50
-39 36 -32 38 17 4 20 -14 29 -15 37 -7 13 13 16 38 5 38 -12 1 -56 40 -51 45
2 3 19 -6 38 -20 l33 -25 16 22 c8 12 11 23 5 25 -6 2 -41 26 -79 53 l-70 50
-21 -22 c-12 -13 -72 -96 -134 -186 -122 -178 -118 -175 -185 -129 -39 27 -45
38 -35 56 26 51 -12 133 -72 155 -61 23 -84 24 -150 11 -32 -7 -58 -11 -58 -9
0 2 21 32 46 66 50 67 115 197 139 275 31 102 27 257 -8 343 -4 8 -17 49 -31
90 -14 41 -34 100 -46 130 -12 30 -23 62 -25 70 -2 8 -11 42 -19 75 -9 33 -19
80 -22 104 -3 25 -7 48 -10 52 -8 13 -18 155 -16 247 0 50 -3 92 -8 92 -27 0
-96 -49 -141 -99 -60 -66 -78 -100 -115 -209 -15 -45 -31 -82 -34 -82 -3 0
-18 27 -33 60 -16 33 -32 60 -37 60 -9 0 -25 -39 -22 -52 1 -5 -3 -8 -10 -8
-6 0 -9 -3 -5 -6 3 -3 -3 -25 -13 -49 -20 -46 -30 -94 -35 -163 -3 -47 -12
-63 -23 -45 -11 18 -34 20 -37 3 -2 -8 -13 -53 -25 -100 -14 -51 -22 -114 -22
-158 0 -40 -4 -72 -9 -70 -4 2 -65 57 -134 122 -139 131 -227 251 -310 421
-41 84 -91 211 -101 256 -2 10 -6 29 -9 42 -3 12 -8 44 -11 72 -3 27 -6 51 -8
52 -1 2 -16 -14 -33 -35z m131 -724 c67 -34 139 -79 144 -90 2 -5 9 -8 16 -8
16 0 187 -150 208 -182 9 -14 23 -31 30 -39 46 -46 113 -194 139 -306 13 -54
17 -133 8 -138 -3 -2 -6 1 -7 8 -3 34 -16 86 -32 126 -10 25 -19 51 -20 56 -8
40 -131 245 -152 253 -4 2 -8 8 -8 14 0 13 -140 152 -188 188 -19 14 -46 34
-60 46 -15 12 -63 42 -107 68 -85 51 -69 53 29 4z m-134 -298 c0 -5 -2 -10 -4
-10 -3 0 -8 5 -11 10 -3 6 -1 10 4 10 6 0 11 -4 11 -10z m85 -5 c22 -3 71 -15
109 -27 185 -54 303 -139 389 -280 47 -77 49 -108 3 -43 -116 162 -321 296
-516 337 -33 6 -60 16 -60 21 0 4 8 6 18 4 9 -3 35 -8 57 -12z m35 -235 c0 -5
-5 -10 -11 -10 -5 0 -7 5 -4 10 3 6 8 10 11 10 2 0 4 -4 4 -10z m30 0 c0 -5
-5 -10 -11 -10 -5 0 -7 5 -4 10 3 6 8 10 11 10 2 0 4 -4 4 -10z m120 -4 c113
-17 231 -81 312 -170 46 -50 50 -68 6 -26 -100 95 -265 172 -393 185 -38 4
-37 3 -31 13 5 9 33 8 106 -2z m1108 -399 c4 -20 -25 -34 -39 -20 -14 14 0 41
19 39 9 -2 18 -10 20 -19z m143 -180 c1 -5 -23 -44 -53 -88 -52 -78 -53 -79
-88 -73 -48 9 -81 9 -105 -1 -16 -6 -14 -2 7 19 16 15 47 52 70 84 24 31 46
59 49 62 12 8 119 5 120 -3z m-99 -231 c36 -23 58 -59 58 -93 0 -36 -9 -49
-42 -62 -90 -34 -214 104 -148 164 11 10 20 14 20 10 0 -5 5 -4 11 2 13 13 65
2 101 -21z"/>
</g>
</svg>
